<svg width="260" height="164" viewBox="0 0 260 164" fill="none" xmlns="http://www.w3.org/2000/svg">
<path d="M18 107.306L44.005 61.6696H60.3728L34.4698 107.306L34.7757 105.875V107.306H78.7802V120.9H18V107.306ZM53.5401 88.6531H67.9193V135.67H53.5401V88.6531Z" fill="#222222"/>
<path d="M180.22 106.637L206.225 61H222.593L196.69 106.637L196.996 105.206V106.637H241V120.231H180.22V106.637ZM215.76 87.9834H230.139V135H215.76V87.9834Z" fill="#222222"/>
<circle cx="129.253" cy="97.9108" r="43.2526" fill="#FEC242"/>
<path d="M150.909 87.6035L134.125 95.7156L151.748 100.471" stroke="#222222" stroke-width="2.79728" stroke-linecap="round" stroke-linejoin="round"/>
<circle cx="119.581" cy="93.1987" r="12.308" fill="white"/>
<circle cx="119.582" cy="93.1992" r="5.0351" fill="#222222"/>
<g filter="url(#filter0_d_2990_7444)">
<mask id="path-6-inside-1_2990_7444" fill="white">
<path d="M157.322 13.5313C148.092 13.5313 140.608 21.0145 140.608 30.2451C140.609 35.8408 143.36 40.7928 147.582 43.8262L147.224 51.0684L155.438 46.8516C156.056 46.921 156.685 46.958 157.322 46.958L166.438 46.958C175.669 46.958 183.152 39.4756 183.152 30.2451C183.152 21.0145 175.669 13.5313 166.438 13.5313L157.322 13.5313Z"/>
</mask>
<path d="M157.322 13.5313L157.322 12.6646L157.322 12.6646L157.322 13.5313ZM140.608 30.2451L139.742 30.2451L139.742 30.2451L140.608 30.2451ZM147.582 43.8262L148.088 43.1223L148.471 43.3977L148.448 43.869L147.582 43.8262ZM147.224 51.0684L147.619 51.8394L146.284 52.525L146.358 51.0255L147.224 51.0684ZM155.438 46.8516L155.042 46.0806L155.274 45.9611L155.534 45.9903L155.438 46.8516ZM157.322 46.958L157.322 47.8247L157.322 47.8247L157.322 46.958ZM183.152 30.2451L184.019 30.2451L184.019 30.2451L183.152 30.2451ZM166.438 13.5313L166.438 12.6646L166.438 13.5313ZM157.322 13.5313L157.322 14.3979C148.57 14.3979 141.475 21.4932 141.475 30.2451L140.608 30.2451L139.742 30.2451C139.742 20.5359 147.613 12.6646 157.322 12.6646L157.322 13.5313ZM140.608 30.2451L141.475 30.2451C141.475 35.5497 144.082 40.2446 148.088 43.1223L147.582 43.8262L147.076 44.53C142.637 41.3409 139.742 36.1319 139.742 30.2451L140.608 30.2451ZM147.582 43.8262L148.448 43.869L148.089 51.1112L147.224 51.0684L146.358 51.0255L146.716 43.7833L147.582 43.8262ZM147.224 51.0684L146.828 50.2974L155.042 46.0806L155.438 46.8516L155.833 47.6226L147.619 51.8394L147.224 51.0684ZM155.438 46.8516L155.534 45.9903C156.122 46.0563 156.719 46.0913 157.322 46.0913L157.322 46.958L157.322 47.8247C156.651 47.8247 155.99 47.7857 155.341 47.7128L155.438 46.8516ZM157.322 46.958L157.322 46.0913L166.438 46.0913L166.438 46.958L166.438 47.8247L157.322 47.8247L157.322 46.958ZM166.438 46.958L166.438 46.0913C175.19 46.0913 182.286 38.9969 182.286 30.2451L183.152 30.2451L184.019 30.2451C184.019 39.9543 176.148 47.8247 166.438 47.8247L166.438 46.958ZM183.152 30.2451L182.286 30.2451C182.286 21.4931 175.19 14.3979 166.438 14.3979L166.438 13.5313L166.438 12.6646C176.148 12.6646 184.019 20.5358 184.019 30.2451L183.152 30.2451ZM166.438 13.5313L166.438 14.3979L157.322 14.3979L157.322 13.5313L157.322 12.6646L166.438 12.6646L166.438 13.5313Z" fill="#FE5E29" mask="url(#path-6-inside-1_2990_7444)"/>
<path d="M152.906 26.22L155.378 21.8916H156.934L154.472 26.22L154.501 26.0843V26.22H158.684V27.5093H152.906V26.22ZM156.285 24.4508H157.652V28.9102H156.285V24.4508Z" fill="#FE5E29"/>
<path d="M162.329 29.0459C161.747 29.0459 161.24 28.8972 160.807 28.5999C160.374 28.3027 160.041 27.8793 159.808 27.33C159.576 26.7807 159.459 26.1376 159.459 25.4009C159.459 24.6576 159.576 24.0114 159.808 23.462C160.041 22.9127 160.374 22.491 160.807 22.1969C161.24 21.9029 161.747 21.7559 162.329 21.7559C162.914 21.7559 163.421 21.9029 163.851 22.1969C164.284 22.491 164.617 22.9127 164.849 23.462C165.082 24.0114 165.198 24.6576 165.198 25.4009C165.198 26.1376 165.082 26.7807 164.849 27.33C164.617 27.8793 164.284 28.3027 163.851 28.5999C163.421 28.8972 162.914 29.0459 162.329 29.0459ZM162.329 27.7178C162.633 27.7178 162.894 27.6257 163.114 27.4415C163.334 27.2541 163.502 26.9859 163.618 26.6369C163.735 26.2879 163.793 25.8759 163.793 25.4009C163.793 24.9226 163.735 24.5106 163.618 24.1649C163.502 23.8159 163.334 23.5493 163.114 23.3651C162.894 23.1777 162.633 23.084 162.329 23.084C162.028 23.084 161.768 23.1777 161.549 23.3651C161.329 23.5493 161.159 23.8159 161.04 24.1649C160.923 24.5106 160.865 24.9226 160.865 25.4009C160.865 25.8759 160.923 26.2879 161.04 26.6369C161.159 26.9859 161.329 27.2541 161.549 27.4415C161.768 27.6257 162.028 27.7178 162.329 27.7178Z" fill="#FE5E29"/>
<path d="M166.09 26.22L168.562 21.8916H170.118L167.656 26.22L167.685 26.0843V26.22H171.868V27.5093H166.09V26.22ZM169.469 24.4508H170.836V28.9102H169.469V24.4508Z" fill="#FE5E29"/>
<path d="M150.914 31.8916H152.349V38.9102H150.914V31.8916ZM152.329 37.5627H155.519V38.9102H152.329V37.5627ZM152.329 34.698H155.17V35.9292H152.329V34.698ZM152.329 31.8916H155.441V33.2391H152.329V31.8916Z" fill="#FE5E29"/>
<path d="M156.575 33.908H157.952V38.9102H156.575V33.908ZM157.758 35.6772V34.635H158.107L157.758 35.6772C157.758 35.3152 157.824 34.9889 157.957 34.698C158.093 34.4072 158.277 34.181 158.509 34.0194C158.745 33.8546 159.009 33.7722 159.3 33.7722C159.458 33.7722 159.618 33.7997 159.779 33.8546V35.1634C159.582 35.1052 159.385 35.0761 159.188 35.0761C158.923 35.0761 158.698 35.1359 158.514 35.2555C158.33 35.375 158.19 35.5527 158.093 35.7886C157.999 36.0245 157.952 36.3121 157.952 36.6514L157.758 35.6772Z" fill="#FE5E29"/>
<path d="M160.773 33.908H162.15V38.9102H160.773V33.908ZM161.956 35.6772V34.635H162.305L161.956 35.6772C161.956 35.3152 162.022 34.9889 162.154 34.698C162.29 34.4072 162.474 34.181 162.707 34.0194C162.943 33.8546 163.206 33.7722 163.497 33.7722C163.655 33.7722 163.815 33.7997 163.977 33.8546V35.1634C163.78 35.1052 163.583 35.0761 163.386 35.0761C163.121 35.0761 162.896 35.1359 162.712 35.2555C162.528 35.375 162.387 35.5527 162.29 35.7886C162.196 36.0245 162.15 36.3121 162.15 36.6514L161.956 35.6772Z" fill="#FE5E29"/>
<path d="M167.2 39.0459C166.709 39.0459 166.262 38.9312 165.858 38.7017C165.457 38.4723 165.14 38.1556 164.908 37.7517C164.678 37.3478 164.563 36.9002 164.563 36.4091C164.563 35.9114 164.678 35.4623 164.908 35.0616C165.14 34.6609 165.457 34.3458 165.858 34.1164C166.262 33.887 166.709 33.7722 167.2 33.7722C167.698 33.7722 168.147 33.887 168.548 34.1164C168.948 34.3458 169.264 34.6609 169.493 35.0616C169.722 35.4623 169.837 35.9114 169.837 36.4091C169.837 36.9002 169.722 37.3478 169.493 37.7517C169.264 38.1556 168.948 38.4723 168.548 38.7017C168.147 38.9312 167.698 39.0459 167.2 39.0459ZM167.2 37.7856C167.452 37.7856 167.679 37.7275 167.879 37.6111C168.079 37.4916 168.234 37.3284 168.344 37.1216C168.454 36.9115 168.509 36.674 168.509 36.4091C168.509 36.1409 168.454 35.9033 168.344 35.6965C168.234 35.4865 168.079 35.3233 167.879 35.207C167.679 35.0907 167.452 35.0325 167.2 35.0325C166.948 35.0325 166.724 35.0907 166.527 35.207C166.329 35.3233 166.174 35.4865 166.061 35.6965C165.948 35.9033 165.892 36.1409 165.892 36.4091C165.892 36.674 165.948 36.9115 166.061 37.1216C166.174 37.3284 166.329 37.4916 166.527 37.6111C166.724 37.7275 166.948 37.7856 167.2 37.7856Z" fill="#FE5E29"/>
<path d="M170.758 33.908H172.135V38.9102H170.758V33.908ZM171.941 35.6772V34.635H172.29L171.941 35.6772C171.941 35.3152 172.007 34.9889 172.139 34.698C172.275 34.4072 172.459 34.181 172.692 34.0194C172.928 33.8546 173.191 33.7722 173.482 33.7722C173.64 33.7722 173.8 33.7997 173.962 33.8546V35.1634C173.765 35.1052 173.568 35.0761 173.371 35.0761C173.106 35.0761 172.881 35.1359 172.697 35.2555C172.513 35.375 172.372 35.5527 172.275 35.7886C172.181 36.0245 172.135 36.3121 172.135 36.6514L171.941 35.6772Z" fill="#FE5E29"/>
</g>
<path d="M149.816 119.471C149.816 122.835 147.117 125.563 143.789 125.563C140.46 125.563 137.762 122.835 137.762 119.471C137.762 116.107 141.556 105.709 143.789 105.709C146.467 105.709 149.816 116.107 149.816 119.471Z" fill="white"/>
<defs>
<filter id="filter0_d_2990_7444" x="134.889" y="7.81125" width="53.983" height="48.9771" filterUnits="userSpaceOnUse" color-interpolation-filters="sRGB">
<feFlood flood-opacity="0" result="BackgroundImageFix"/>
<feColorMatrix in="SourceAlpha" type="matrix" values="0 0 0 0 0 0 0 0 0 0 0 0 0 0 0 0 0 0 127 0" result="hardAlpha"/>
<feOffset/>
<feGaussianBlur stdDeviation="2.86"/>
<feComposite in2="hardAlpha" operator="out"/>
<feColorMatrix type="matrix" values="0 0 0 0 0 0 0 0 0 0 0 0 0 0 0 0 0 0 0.12 0"/>
<feBlend mode="normal" in2="BackgroundImageFix" result="effect1_dropShadow_2990_7444"/>
<feBlend mode="normal" in="SourceGraphic" in2="effect1_dropShadow_2990_7444" result="shape"/>
</filter>
</defs>
</svg>
