<svg width="148" height="148" viewBox="0 0 148 148" fill="none" xmlns="http://www.w3.org/2000/svg">
<g clip-path="url(#clip0_2990_7350)">
<rect x="122.73" y="140.848" width="30.0813" height="29.4797" rx="14.7398" transform="rotate(-180 122.73 140.848)" fill="#FEC242"/>
<path d="M127.221 73.2617C133.201 73.2619 138.051 78.1101 138.051 84.0908C138.051 100.974 124.364 114.661 107.48 114.661C90.597 114.661 76.9103 100.974 76.9102 84.0908C76.9102 78.11 81.7584 73.2617 87.7393 73.2617C93.7199 73.2619 98.5684 78.1101 98.5684 84.0908C98.5685 89.0126 102.559 93.002 107.48 93.002C112.402 93.0016 116.392 89.0124 116.392 84.0908C116.392 78.1101 121.24 73.2619 127.221 73.2617Z" fill="#9451FF"/>
<circle cx="110.945" cy="35.4448" r="34.9448" fill="#FEC242"/>
<path d="M120.746 21.4036L110.865 31.992L124.966 30.4894" stroke="#222222" stroke-width="2.17324" stroke-linecap="round" stroke-linejoin="round"/>
<circle cx="99.6196" cy="34.2537" r="9.56228" transform="rotate(-21.1836 99.6196 34.2537)" fill="white"/>
<circle cx="99.6216" cy="34.2515" r="3.91184" transform="rotate(-21.1836 99.6216 34.2515)" fill="#222222"/>
<rect x="73.3984" y="8.42188" width="30.0813" height="63.1707" rx="15.0407" transform="rotate(90 73.3984 8.42188)" fill="#2CDEA7"/>
<rect x="73.3984" y="38.5039" width="31.2846" height="63.1707" rx="15.6423" transform="rotate(90 73.3984 38.5039)" fill="#2CDEA7"/>
<rect x="75.6035" y="139.943" width="32.1324" height="64.8828" rx="16.0662" transform="rotate(-180 75.6035 139.943)" fill="#FF5E80"/>
<rect x="44.0898" y="139.943" width="32.1324" height="64.8828" rx="16.0662" transform="rotate(-180 44.0898 139.943)" fill="#FF5E80"/>
<path d="M23.9438 99.0498C28.129 98.084 35.0479 100.014 38.4283 107.417" stroke="#222222" stroke-width="2.19921" stroke-linecap="round"/>
<path d="M23.4626 102.907C27.6479 101.941 34.7254 102.907 38.4293 107.414" stroke="#222222" stroke-width="2.19921" stroke-linecap="round"/>
<path d="M63.3883 99.0498C59.203 98.084 52.2841 100.014 48.9037 107.417" stroke="#222222" stroke-width="2.19921" stroke-linecap="round"/>
<path d="M63.8694 102.909C59.6842 101.943 52.6067 102.909 48.9027 107.416" stroke="#222222" stroke-width="2.19921" stroke-linecap="round"/>
<path d="M47.7363 114.183C47.0766 117.481 40.6989 119.019 39.1594 114.842" stroke="#222222" stroke-width="2.19921" stroke-linecap="round"/>
<g filter="url(#filter0_d_2990_7350)">
<rect width="50.5366" height="39.7073" rx="19.8537" transform="matrix(-0.965926 -0.258819 -0.258819 0.965926 114.537 53.5781)" fill="white"/>
<path d="M94.5563 60.6021L74.9605 71.9158M79.1015 56.4609L90.4152 76.0568" stroke="#222222" stroke-width="4" stroke-linecap="round" stroke-linejoin="round"/>
<path d="M61.7674 85.6031L66.2345 71.7152L76.0282 82.5277L61.7674 85.6031Z" fill="white"/>
</g>
</g>
<defs>
<filter id="filter0_d_2990_7350" x="57.4958" y="44.9551" width="54.9907" height="47.3325" filterUnits="userSpaceOnUse" color-interpolation-filters="sRGB">
<feFlood flood-opacity="0" result="BackgroundImageFix"/>
<feColorMatrix in="SourceAlpha" type="matrix" values="0 0 0 0 0 0 0 0 0 0 0 0 0 0 0 0 0 0 127 0" result="hardAlpha"/>
<feOffset dy="2.4065"/>
<feGaussianBlur stdDeviation="1.20325"/>
<feComposite in2="hardAlpha" operator="out"/>
<feColorMatrix type="matrix" values="0 0 0 0 0.389423 0 0 0 0 0.389423 0 0 0 0 0.389423 0 0 0 0.13 0"/>
<feBlend mode="normal" in2="BackgroundImageFix" result="effect1_dropShadow_2990_7350"/>
<feBlend mode="normal" in="SourceGraphic" in2="effect1_dropShadow_2990_7350" result="shape"/>
</filter>
<clipPath id="clip0_2990_7350">
<rect width="148" height="148" fill="white"/>
</clipPath>
</defs>
</svg>
