<svg width="148" height="148" viewBox="0 0 148 148" fill="none" xmlns="http://www.w3.org/2000/svg">
<circle cx="105.285" cy="38.5034" r="31.8862" fill="#FEC242"/>
<rect x="72.6348" y="7" width="30.7783" height="64.6345" rx="15.3892" transform="rotate(90 72.6348 7)" fill="#2CDEA7"/>
<rect x="72.6348" y="37.7773" width="32.0094" height="64.6345" rx="16.0047" transform="rotate(90 72.6348 37.7773)" fill="#2CDEA7"/>
<path d="M57.5241 32.0098L45.0762 38.0263L58.1465 41.5532" stroke="#222222" stroke-width="2.07466" stroke-linecap="round" stroke-linejoin="round"/>
<circle cx="34.2887" cy="36.1597" r="9.1285" fill="white"/>
<circle cx="34.2891" cy="36.1602" r="3.73439" fill="#222222"/>
<rect x="72.1953" y="138.396" width="31.2846" height="63.1707" rx="15.6423" transform="rotate(-180 72.1953 138.396)" fill="#FF5E80"/>
<rect x="41.5137" y="138.396" width="31.2846" height="63.1707" rx="15.6423" transform="rotate(-180 41.5137 138.396)" fill="#FF5E80"/>
<rect x="115.365" y="145.389" width="30.6953" height="30.0814" rx="15.0407" transform="rotate(-172.638 115.365 145.389)" fill="#FEC242"/>
<path d="M128.752 77.5781C134.804 78.3604 139.076 83.9013 138.294 89.9536C136.087 107.04 120.446 119.101 103.36 116.894C86.2742 114.686 74.2125 99.0458 76.42 81.9597C77.202 75.9072 82.7431 71.634 88.7956 72.416C94.848 73.1981 99.1212 78.7392 98.3394 84.7916C97.6959 89.7725 101.211 94.3318 106.192 94.9755C111.173 95.6188 115.732 92.1027 116.376 87.1219C117.158 81.0693 122.699 76.7962 128.752 77.5781Z" fill="#9451FF"/>
<path d="M102.84 98.9922C103.016 100.292 104.15 102.993 107.282 103.398C110.413 103.803 112.1 101.466 112.552 100.247" stroke="#222222" stroke-width="1.46168" stroke-linecap="round"/>
<path d="M95.5566 106.305C96.6907 107.538 101.568 112.977 113.345 114.498C125.123 116.02 130.859 111.953 132.087 111.024" stroke="#222222" stroke-width="1.46168" stroke-linecap="round"/>
<path d="M116.611 100.771C116.787 102.072 117.922 104.773 121.053 105.177C124.184 105.582 125.872 103.245 126.324 102.026" stroke="#222222" stroke-width="1.46168" stroke-linecap="round"/>
<g filter="url(#filter0_d_2990_7382)">
<rect x="54.8516" y="38" width="50.5366" height="39.7073" rx="19.8537" transform="rotate(12.7523 54.8516 38)" fill="white"/>
<path d="M86.5554 90.8936L89.0692 76.5232L75.3671 81.5314L86.5554 90.8936Z" fill="white"/>
<path d="M82.3057 63.8574C81.513 68.6577 76.9789 71.9066 72.1786 71.1139C67.3782 70.3212 64.1294 65.7871 64.9221 60.9867C65.7148 56.1864 70.2489 52.9375 75.0492 53.7303C79.8496 54.523 83.0984 59.057 82.3057 63.8574Z" stroke="#222222" stroke-width="4" stroke-linecap="round" stroke-linejoin="round"/>
<path d="M78.8242 69.7344L81.8043 73.8934" stroke="#222222" stroke-width="4" stroke-linecap="round" stroke-linejoin="round"/>
</g>
<defs>
<filter id="filter0_d_2990_7382" x="47.5681" y="41.8887" width="55.0923" height="53.8189" filterUnits="userSpaceOnUse" color-interpolation-filters="sRGB">
<feFlood flood-opacity="0" result="BackgroundImageFix"/>
<feColorMatrix in="SourceAlpha" type="matrix" values="0 0 0 0 0 0 0 0 0 0 0 0 0 0 0 0 0 0 127 0" result="hardAlpha"/>
<feOffset dy="2.4065"/>
<feGaussianBlur stdDeviation="1.20325"/>
<feComposite in2="hardAlpha" operator="out"/>
<feColorMatrix type="matrix" values="0 0 0 0 0.389423 0 0 0 0 0.389423 0 0 0 0 0.389423 0 0 0 0.13 0"/>
<feBlend mode="normal" in2="BackgroundImageFix" result="effect1_dropShadow_2990_7382"/>
<feBlend mode="normal" in="SourceGraphic" in2="effect1_dropShadow_2990_7382" result="shape"/>
</filter>
</defs>
</svg>
