<svg width="24" height="24" viewBox="0 0 24 24" fill="none" xmlns="http://www.w3.org/2000/svg">
<path d="M10.3859 10.7204C10.3859 9.83705 11.1085 9.12095 11.9998 9.12095C12.8912 9.12095 13.6138 9.83705 13.6138 10.7204C13.6138 11.6038 12.8912 12.3199 11.9998 12.3199C11.1085 12.3199 10.3859 11.6038 10.3859 10.7204Z" fill="#222222"/>
<path d="M12 2.08331C9.73831 2.08331 7.56681 2.96238 5.96386 4.53096C4.51663 5.94715 3.75586 7.53912 3.55487 9.19739C3.35582 10.8397 3.71334 12.4788 4.38373 14.0037C5.71614 17.0343 8.3544 19.7782 10.8755 21.5599C11.5486 22.0356 12.4514 22.0356 13.1245 21.5599C15.6456 19.7782 18.2839 17.0343 19.6163 14.0037C20.2867 12.4788 20.6442 10.8397 20.4451 9.19739C20.2441 7.53912 19.4834 5.94715 18.0361 4.53096C16.4332 2.96238 14.2617 2.08331 12 2.08331ZM11.9998 7.20159C13.9608 7.20159 15.5505 8.77702 15.5505 10.7204C15.5505 12.6638 13.9608 14.2392 11.9998 14.2392C10.0389 14.2392 8.44924 12.6638 8.44924 10.7204C8.44924 8.77702 10.0389 7.20159 11.9998 7.20159Z" fill="#222222"/>
</svg>
