<svg width="24" height="24" viewBox="0 0 24 24" fill="none" xmlns="http://www.w3.org/2000/svg">
<mask id="mask0_2541_18671" style="mask-type:alpha" maskUnits="userSpaceOnUse" x="0" y="0" width="24" height="24">
<rect width="24" height="24" rx="8" fill="#D9D9D9"/>
</mask>
<g mask="url(#mask0_2541_18671)">
<rect x="11" y="11" width="26" height="26" rx="13" fill="#FE5E29"/>
<rect x="8" y="-14" width="26" height="26" rx="13" fill="#FEA642"/>
<rect x="-13" y="-7" width="26" height="26" rx="13" fill="#FF5E80"/>
<path d="M5 10C9.00263 10 12.5811 11.8103 14.9658 14.6553C12.5214 17.0189 11 20.3312 11 24C11 27.1766 12.1409 30.0857 14.0332 32.3438C11.6941 34.6056 8.51085 36 5 36C-2.1797 36 -8 30.1797 -8 23C-8 15.8203 -2.1797 10 5 10Z" fill="#2CDEA7"/>
<rect x="4" y="4" width="16" height="16" rx="8" fill="white"/>
<path d="M4.61634 19.1064C4.57778 19.3449 4.78407 19.5512 5.02259 19.5127L9.0297 18.8649C9.31493 18.8188 9.42798 18.469 9.22367 18.2647L5.86431 14.9053C5.66 14.701 5.3102 14.8141 5.26409 15.0993L4.61634 19.1064Z" fill="white"/>
<circle cx="8" cy="12" r="1" fill="#222222"/>
<circle cx="12" cy="11" r="1" fill="#222222"/>
<circle cx="16" cy="12" r="1" fill="#222222"/>
</g>
</svg>
