<svg width="48" height="48" viewBox="0 0 48 48" fill="none" xmlns="http://www.w3.org/2000/svg">
<rect width="48" height="48" rx="24" fill="#FFDAF0"/>
<rect x="29.0625" y="43.6582" width="14.3526" height="28.9811" rx="7.17628" transform="rotate(-150 29.0625 43.6582)" fill="#FF5E80"/>
<rect x="16.873" y="36.6211" width="14.3526" height="28.9811" rx="7.17628" transform="rotate(-150 16.873 36.6211)" fill="#FF5E80"/>
<path d="M18.2138 16.3018C20.0485 16.8629 22.294 19.1545 21.9481 22.7734" stroke="#222222" stroke-width="0.98232" stroke-linecap="round"/>
<path d="M17.1663 17.687C19.001 18.2481 21.523 20.2023 21.9492 22.773" stroke="#222222" stroke-width="0.98232" stroke-linecap="round"/>
<path d="M33.472 25.1096C32.0687 23.8013 28.9613 23.0024 26.0002 25.1114" stroke="#222222" stroke-width="0.98232" stroke-linecap="round"/>
<path d="M32.7962 26.7108C31.393 25.4025 28.4395 24.1955 26.0001 25.1116" stroke="#222222" stroke-width="0.98232" stroke-linecap="round"/>
<path d="M24.039 27.4704C23.0472 28.5988 20.2367 27.7694 20.574 25.8099" stroke="#222222" stroke-width="0.98232" stroke-linecap="round"/>
</svg>
