<svg width="48" height="48" viewBox="0 0 48 48" fill="none" xmlns="http://www.w3.org/2000/svg">
<rect width="48" height="48" rx="24" fill="#F1E9FF"/>
<rect x="25.209" y="41.7168" width="14.2935" height="14.0077" rx="7.00383" transform="rotate(-161.02 25.209 41.7168)" fill="#FEC242"/>
<path d="M37.6748 12.0409C40.3616 12.9655 41.791 15.8932 40.8671 18.5802C38.2579 26.1664 29.9924 30.2003 22.4062 27.5913C14.8201 24.982 10.7856 16.7176 13.3948 9.13138C14.3193 6.44429 17.2469 5.01491 19.9341 5.93916C22.6211 6.86353 24.0503 9.7913 23.1263 12.4784C22.3657 14.6899 23.5419 17.0991 25.7533 17.8598C27.9647 18.6202 30.374 17.4443 31.1346 15.2328C32.0591 12.5457 34.9876 11.1167 37.6748 12.0409Z" fill="#9451FF"/>
<rect x="17.9434" y="17.1309" width="8.73655" height="2.24654" transform="rotate(19.385 17.9434 17.1309)" fill="white"/>
<ellipse cx="23.2216" cy="20.1797" rx="1.49769" ry="1.12327" transform="rotate(19.385 23.2216 20.1797)" fill="#222222"/>
<rect x="28.5391" y="20.8613" width="8.73655" height="2.24654" transform="rotate(19.385 28.5391 20.8613)" fill="white"/>
<ellipse cx="33.8193" cy="23.9102" rx="1.49769" ry="1.12327" transform="rotate(19.385 33.8193 23.9102)" fill="#222222"/>
</svg>
