<svg width="48" height="48" viewBox="0 0 48 48" fill="none" xmlns="http://www.w3.org/2000/svg">
<rect width="48" height="48" rx="24" fill="#FFF9BA"/>
<rect x="31.2383" y="40.0352" width="14.0604" height="13.7792" rx="6.8896" transform="rotate(-180 31.2383 40.0352)" fill="#FEC242"/>
<path d="M33.3379 8.44336C36.1334 8.44336 38.3994 10.7094 38.3994 13.5049C38.3994 21.3964 32.0028 27.7937 24.1113 27.7939C16.2198 27.7938 9.82228 21.3964 9.82227 13.5049C9.82227 10.7094 12.0884 8.44349 14.8838 8.44336C17.6793 8.44336 19.9453 10.7094 19.9453 13.5049C19.9453 15.8053 21.8109 17.6698 24.1113 17.6699C26.4117 17.6697 28.2764 15.8053 28.2764 13.5049C28.2764 10.7095 30.5426 8.4436 33.3379 8.44336Z" fill="#9451FF"/>
<path d="M22.8242 19.6914C22.9804 20.2717 23.6545 21.4322 25.1007 21.4322C26.5469 21.4322 27.1762 20.2717 27.3102 19.6914" stroke="#222222" stroke-width="0.669543" stroke-linecap="round"/>
<path d="M19.9453 23.4414C20.5329 23.9353 23.068 26.1196 28.5075 26.1196C33.947 26.1196 36.3141 23.9353 36.8178 23.4414" stroke="#222222" stroke-width="0.669543" stroke-linecap="round"/>
<path d="M29.1855 19.6914C29.3418 20.2717 30.0158 21.4322 31.462 21.4322C32.9082 21.4322 33.5376 20.2717 33.6715 19.6914" stroke="#222222" stroke-width="0.669543" stroke-linecap="round"/>
</svg>
